<svg id="Layer_1" data-name="Layer 1" xmlns="http://www.w3.org/2000/svg" viewBox="0 0 1005.91 523.91"><defs><style>.cls-1{fill:#fff;}.cls-2{fill:#fabe0e;}</style></defs><g id="Layer_2" data-name="Layer 2"><g id="Layer_1-2" data-name="Layer 1-2"><path id="Rectangle_29" data-name="Rectangle 29" class="cls-1" d="M262,0H744a52.41,52.41,0,0,1,52.39,52.39h0A52.4,52.4,0,0,1,744,104.78H262a52.38,52.38,0,0,1-52.39-52.37v0h0A52.4,52.4,0,0,1,262,0Z" transform="translate(0 0)"/><path id="Rectangle_27" data-name="Rectangle 27" class="cls-1" d="M262,419.13H744a52.41,52.41,0,0,1,52.39,52.39h0A52.4,52.4,0,0,1,744,523.91H262a52.38,52.38,0,0,1-52.39-52.37v0h0A52.4,52.4,0,0,1,262,419.13Z" transform="translate(0 0)"/><path id="Rectangle_28" data-name="Rectangle 28" class="cls-1" d="M471.52,209.57h482a52.38,52.38,0,0,1,52.39,52.37V262h0a52.4,52.4,0,0,1-52.39,52.39h-482A52.41,52.41,0,0,1,419.13,262h0a52.4,52.4,0,0,1,52.35-52.43Z" transform="translate(0 0)"/><circle id="Ellipse_5" data-name="Ellipse 5" class="cls-2" cx="261.96" cy="261.96" r="52.39"/><circle id="Ellipse_6" data-name="Ellipse 6" class="cls-2" cx="52.39" cy="261.96" r="52.39"/></g></g></svg>